<svg xmlns="http://www.w3.org/2000/svg" width="30" height="23" viewBox="0 0 30 23"><g transform="translate(-1121 -46)"><g transform="translate(1121 46)"><g transform="translate(0.024 0.052)"><g transform="translate(0 0)"><path d="M228.869,64.693v22.93l0,.006H198.911V64.693Z" transform="translate(-198.911 -64.693)" fill="#2e4593"/></g></g><g transform="translate(0.024 0)"><g transform="translate(0 0.007)"><path d="M228.869,85.187v2.386l0,.006H225.75l-9.2-7.04-.923-.7L214.547,79l-.363-.281-1.105-.842-.412-.316-.346-.264-.7-.529-.223-.174-.34-.256L207.8,73.832l-1.467-1.124-7.419-5.675V64.644l.027-.046.058.046h3.034l9.372,7.17.919.707.247.186,1.469,1.124.148.114.564.43.884.681.151.117.771.587.75.576,2.017,1.539L220.79,79Z" transform="translate(-198.911 -64.598)" fill="#fcf5ff"/></g><path d="M228.873,87.5l.007.083-2.005-.013-10.32-7.9-.881-.678-.042-.028-.884-.68-.539-.415-.98-.75-.908-.691-.129-.1-.566-.437-.223-.173-2.478-1.9L207.459,72.7l-8.548-6.544V64.583l.027.007.058.046L209.534,72.7,211,73.824l.4.307.919.708.346.262.562.432,1.04.8,1.363,1.043.151.118.5.379.271.21,1.2.913Z" transform="translate(-198.911 -64.583)" fill="#f42525"/></g><g transform="translate(0.024 0.052)"><g transform="translate(0 0)"><path d="M228.869,65.145v2.388l-6.832,5.225-1.466,1.124-3.267,2.506-.75.569-.771.591-.151.116-.345.263-.539.415-.564.428-.365.281-1.5,1.15-.919.705-8.788,6.724h-3.7V85.686l8.668-6.636,1.465-1.123,2.019-1.539.34-.262.223-.175.7-.531.346-.26L214.184,74l.148-.114,1.3-1,.167-.128.756-.578,9.783-7.486h2.3Z" transform="translate(-198.911 -64.693)" fill="#fcf5ff"/></g><g transform="translate(0 0)"><path d="M228.794,65.263,219,72.757l-1.468,1.124-.979.752-.772.591-.151.115-1.363,1.048-1.04.79-.562.434-.346.261-.069.055-.85.654-.62.469-11.2,8.579h-.676V86.555l9.794-7.505,1.468-1.123,1.229-.938.223-.171.566-.43.129-.1.908-.692,1.519-1.165.709-.545.175-.134.923-.706.371-.284,10.536-8.064h1.408l0,.5Z" transform="translate(-198.911 -64.693)" fill="#f42525"/></g></g><g transform="translate(0 8.196)"><g transform="translate(0 0)"><rect width="30" height="6.129" fill="#fff"/></g></g><g transform="translate(0 9.292)"><rect width="30" height="3.94" fill="#f42525"/></g><g transform="translate(13.42 0.052)"><g transform="translate(0 0)"><rect width="3.339" height="22.935" fill="#cd002a"/></g></g><g transform="translate(12.485 0.052)"><g transform="translate(0 0)"><path d="M234.573,79.05h.93v8.579h-5.2V79.05h.927V72.757H230.3V64.693h5.2v8.064h-.93Z" transform="translate(-230.305 -64.693)" fill="#fff"/></g><g transform="translate(0.911 0)"><rect width="3.376" height="22.935" fill="#f42525"/></g></g></g></g></svg>